<svg xmlns="http://www.w3.org/2000/svg" height="800" width="1200" viewBox="-37.5 -19.25 325 115.5"><path fill="#C8151B" d="M0 0h250v77H0z"/><path d="M182.257 70.018l-.084-12.757h-5.47c-1.609 0-3.875-.507-3.875-4.213-.03-.061-.03-2.023-.021-4.496l.037-.079V35.575h9.529V22.757h-9.529V5.486h-14.571v43.171-.587 6.836c.282 4.872.975 10.255 5.392 13.063 2.896 1.639 6.283 2.058 9.867 2.012l8.725.037m2.557-55.778c-.655-6.375 3.784-9.332 8.531-9.332 4.744 0 8.594 3.86 8.594 8.619 0 1.612-.662 3.874-2.106 5.647-1.449 1.67-4.651 2.859-5.862 2.942l-7.998.4-1.159-8.276M89.56 26.089v23.794c0 2.543.813 8.882-7.386 8.781-.222.029-.957.004-1.099-.038-6.873-.117-6.323-5.463-6.323-8.729V33.616c-.345-7.678-5.043-9.301-8.041-9.551-2.175-.241-5.642-.096-7.086-.096.359.728.484 3.696.484 5.75v24.183c0 5.443.897 7.366.897 7.366C64.41 73.216 76.289 73.171 83 70.726c.233-.087.934-.347 1.217-.452 2.51-.963 5.165-4.25 5.165-4.25l.719.075-.058 3.878h14.323V26.089H89.56m34.901 43.839V46.13c0-2.54-.816-8.879 7.384-8.773.222-.032.955-.008 1.098.03 6.878.124 6.324 5.469 6.324 8.732v16.285c.343 7.675 5.041 9.3 8.044 9.549 2.171.241 5.639.098 7.084.098-.357-.729-.481-3.698-.481-5.756 0 0-.005-18.735-.005-24.179 0-5.44-.892-7.364-.892-7.364-3.403-11.95-15.289-11.903-22-9.458-.233.085-.934.342-1.215.45-2.51.961-5.166 4.253-5.166 4.253l-.72-.073.06-3.879h-14.323v3.873l.002 36.302v3.709h14.806m114.323-11.008c-2.456 0-4.438 1.911-4.438 4.77 0 2.866 1.982 4.79 4.438 4.773v.017c2.397 0 4.429-1.924 4.429-4.79 0-2.859-2.031-4.77-4.429-4.77m0 10.984c-3.295 0-6.229-2.28-6.229-6.215 0-3.928 2.935-6.215 6.229-6.215 3.281 0 6.216 2.287 6.216 6.215 0 3.935-2.935 6.215-6.216 6.215zm.231-6.824c.643 0 1.019-.128 1.019-.865 0-.692-.737-.741-1.278-.741h-1.001v1.606zm-1.261 3.95h-1.426v-6.696h2.493c1.716 0 2.736.497 2.736 2.023 0 1.234-.72 1.679-1.606 1.746l1.708 2.927h-1.693l-1.542-2.813h-.67zm-22.392-28.484c-.399-3.026-2.611-5.265-5.267-5.329-3.078-.075-6.159 1.277-6.229 4.551-.05 2.391 1.488 4.598 5.838 4.543 14.266-.179 20.458 3.651 20.45 13.112-.008 10.132-8.638 15.481-20.258 15.481-12.518 0-20.865-4.312-21.302-14.097h13.491c-.026 3.27 3.465 5.082 7.43 5.082 3.375 0 5.865-1.677 5.824-4.547-.037-2.326-2.242-4.402-5.786-4.723-6.878-.604-10.249.565-15.823-3.197-5.579-3.762-4.981-7.681-4.943-10.948.112-8.677 9.698-14.687 20.729-14.595 9.917.081 19.796 4.787 19.202 14.665h-13.356M39.486 45.971v23.946h16.88V6.551h-16.88v22.491H21.88V6.551H5v63.366h16.88V45.971h17.606" fill="#FFF"/></svg>