<svg xmlns="http://www.w3.org/2000/svg" height="800" width="1200" viewBox="-1.0180635 -1.6687275 8.823217 10.012365"><g fill="#ffc421"><path d="M5.75134 4.89374c-.04904.39899-.3616.7126-.76694.76094 0 0-.64382.09807-1.59103.09807-.9472 0-1.59068-.09807-1.59068-.09807-.40534-.04833-.7179-.36195-.76729-.76094 0 0-.09772-.71085-.09772-1.55646 0-.8456.09772-1.55646.09772-1.5568.0494-.39865.36195-.71227.7673-.76024 0 0 .64346-.09843 1.59067-.09843.9472 0 1.59103.09843 1.59103.09843.40534.04797.7179.3616.76694.76023 0 .00035.09807.7112.09807 1.55681 0 .8456-.09807 1.55646-.09807 1.55646m.90028-3.70735C6.58354.63571 6.15174.2018 5.59152.13547c0 0-.88935-.13547-2.19815-.13547C2.08457 0 1.1952.13547 1.1952.13547.635.20179.2032.6357.13547 1.18639c0 0-.13547.98284-.13547 2.15089s.13547 2.15053.13547 2.15089c.06773.55068.49953.9846 1.05974 1.05092 0 0 .88935.13582 2.19816.13582 1.3088 0 2.19816-.13582 2.19816-.13582.5602-.06632.992-.50024 1.0601-1.05092 0-.00036.13546-.98284.13546-2.15089s-.13547-2.15089-.13547-2.15089"/><path d="M3.75461 2.7125c.14817-.02046.29316-.02963.46602-.02645.16722.00352.3436.0194.49989.04762 0 0 .05115.012.05115-.04163v-.34678c0-.03175-.04092-.04198-.04092-.04198-.17145-.0441-.34114-.06879-.50906-.07232-.15804-.00282-.31573.0127-.47307.04622 0 0-.03951.012-.03951.04621v.3429c0 .0635.0455.04622.0455.04622m-1.23225.21237s.52917-.00071.52917-.43744c0-.43674-.52917-.4371-.52917-.4371s-.52952.00036-.52952.4371c0 .43674.52952.43744.52952.43744m2.29024.8809c-.1838.11359-.72038.40322-1.41676.40322-.69603 0-1.23296-.28963-1.41676-.40322 0 0-.06844-.04798-.06844.04127v.17745c0 .05362.06033.10971.06033.10971.18133.13935.7493.52952 1.42487.52987.67557-.00035 1.24319-.39052 1.42487-.52987 0 0 .06068-.05609.06068-.10971v-.17745c0-.08925-.0688-.04127-.0688-.04127"/></g></svg>