<svg xmlns="http://www.w3.org/2000/svg" height="800" width="1200" viewBox="-1.8202275 -1.0552475 15.775305 6.331485"><path d="M4.1783.92498c-.2607.00035-.49742.21907-.49742.45367v1.87466c.2607-.0007.49742-.21907.49742-.45367zm6.82872 1.88524c-.16898-.00035-.31327-.05715-.44062-.1732-.12206-.11713-.17956-.25013-.18098-.42123-.00246-.0702-.00246-.22542.00036-.29845.0014-.16721.05926-.29845.18168-.4138.12312-.11819.26705-.17569.43956-.17569.1725 0 .31609.0575.43991.1764.12206.11464.17957.24588.18133.4145.00247.06844.00353.22296 0 .2988-.00141.16934-.05891.30234-.17956.4184-.12841.11712-.27305.17392-.44168.17427m1.12677-.89393c-.0007-.29634-.11218-.5528-.3309-.76236-.2212-.21202-.48895-.31926-.79587-.31926h-.00035c-.30657 0-.57433.10724-.79552.31926-.21872.20955-.3302.46602-.3309.76024-.00141.04586-.00141.24306 0 .30445.00176.29915.11324.55668.3309.76552l.00282.00247c.2219.1898.4886.2861.7927.2861h.00035c.30374 0 .5708-.0963.7927-.28574l.00317-.00283c.21766-.20884.32878-.46637.3309-.76447.00141-.06244.00141-.25964 0-.30338m-2.95345.24765c-.16652.06667-.2159.19755-.23919.26-.02963.0783-.07726.1478-.14393.21201-.12841.11712-.2727.17392-.44168.17427-.16863-.00035-.31327-.05715-.44062-.1732-.12206-.11713-.17956-.25013-.18097-.42123-.00247-.0702-.00247-.22542.00035-.29845.00176-.16721.05927-.29845.18168-.4138.12312-.11819.26705-.17569.43956-.17569s.31997.0508.47555.21237c.04162.0434.10689.07197.17533.07197a.25011.25011 0 00.1771-.07338c.0455-.04515.07337-.10795.07337-.1771 0-.05961-.02046-.11464-.05574-.15733-.13864-.16792-.4378-.36971-.8456-.36971-.30693 0-.57468.10724-.79588.31926-.21872.20955-.3302.46602-.3309.76024-.00141.04586-.00141.24306 0 .30445.00212.29915.11324.55668.3309.76552l.00318.00247c.2219.1898.4886.2861.7927.2861.23388 0 .44414-.05609.63076-.16897 0 .14322-.0875.62406-.62583.62406-.15346 0-.26106-.05856-.29669-.08008-.21307-.12735-.43038-.03246-.58667.12382 0 0 .29951.44944.88124.44944.29634 0 .56621-.0882.78035-.30198.23777-.23741.34255-.53551.34255-.87841v-.9264s-.16087-.006-.30092.04975m-2.35056-.04975v.9264c0 .3429-.10478.641-.34255.87841-.21378.21379-.48401.30198-.78034.30198-.58173 0-.88124-.44944-.88124-.44944.15628-.15628.37394-.25117.58667-.12382.03598.02152.14322.08008.29668.08008.53834 0 .62583-.48084.62583-.62406-.18627.11288-.39687.16898-.63077.16898-.3041 0-.5708-.09631-.79269-.2861l-.00282-.00248c-.21802-.20884-.32914-.46637-.33126-.76552-.0014-.06139-.0014-.25859 0-.30445.0007-.29422.11218-.55069.33126-.76024.22084-.21202.4886-.31926.79551-.31926.40781 0 .70697.20179.84561.36971.03528.04269.05574.09772.05574.15734 0 .06914-.02787.13194-.07338.1771-.04515.04515-.1076.07337-.1771.07337-.06808 0-.1337-.02857-.17532-.07197-.15522-.16157-.30304-.21237-.47555-.21237-.1725 0-.31609.0575-.4392.17569-.12277.11535-.18027.24659-.18204.4138-.00282.07303-.00282.22825 0 .29845.00141.1711.05892.3041.18098.42122.127.11606.27164.17286.44026.17321.16898-.00035.31327-.05715.44168-.17427.06703-.0642.1143-.1337.14393-.21202.02329-.06244.07268-.19332.23919-.26.14005-.05573.30092-.04974.30092-.04974M3.23074 3.25331c-.00882-.18132-.13159-.46072-.43956-.49741H1.6951l1.26259-1.20897c.05362-.05116.17321-.22331.08784-.40923-.06844-.14922-.1831-.21272-.38312-.21272H1.08903c.00635.20884.11041.4579.38735.50236h.89887L1.0467 2.67617c-.05397.0515-.14252.2106-.07267.37218.06315.1457.16969.20496.36724.20496zm.67345.29598a.24847.24847 0 01.07303.17604c0 .07585-.03387.13688-.07268.17604-.07408.07373-.17497.15098-.30691.20531-.11077.04622-.23213.07162-.35948.07162h-2.298c-.25964 0-.4946-.10548-.66498-.27552C.10513 3.73274 0 3.49778 0 3.23814v-2.298C0 .68052.10513.44557.27517.27553.44556.10548.6805 0 .94015 0h2.298c.12735 0 .2487.0254.35948.07161.15205.0628.24906.1404.3429.24165.0374.04022.07302.09984.07302.17604 0 .0635-.02434.12735-.07302.17568-.04869.04869-.11219.07303-.17569.07303-.06385 0-.1284-.02505-.17603-.07303C3.52249.59866 3.48615.5648 3.40995.53234a.44198.44198 0 00-.1718-.03457h-2.298a.4401.4401 0 00-.31291.12982C.54716.70732.49742.81809.49742.94015v2.298c0 .12205.04974.23283.12982.3129a.44127.44127 0 00.31291.12948h2.298a.44198.44198 0 00.1718-.03458c.04763-.0201.09737-.0515.14252-.09666a.25077.25077 0 01.17604-.07267.24817.24817 0 01.17568.07267" fill="#f48c00"/></svg>